<?xml version="1.0" ?><!DOCTYPE svg  PUBLIC '-//W3C//DTD SVG 1.1//EN'  'http://www.w3.org/Graphics/SVG/1.1/DTD/svg11.dtd'><svg xmlns="http://www.w3.org/2000/svg" width="485.000" height="473.000" viewBox="-1.000 -5.000 485.000 473.000"><line x1="439.41520467836256" y1="80.29113924050631" x2="287.60233918128654" y2="368.79746835443035" stroke="#d82626" fill="none" stroke-width="3.0"/><polygon points="287.60233918128654 368.79746835443035 289.60414295013595 358.5508698129132 291.3276847455467 361.7177931904947 294.91389932308766 361.34487898610837" fill="#d82626"/><line x1="287.60233918128654" y1="368.79746835443035" x2="246.59479085164625" y2="246.61601572783204" stroke="#d82626" fill="none" stroke-width="3.0"/><line x1="246.59479085164625" y1="246.61601572783204" x2="179.53216374269005" y2="46.80379746835442" stroke="#d82626" fill="none" stroke-width="3.0"/><polygon points="179.53216374269005 46.80379746835442 185.55810131179624 55.32952772524353 182.07764520473737 54.3880261124799 179.86992982870214 57.23863882177901" fill="#d82626"/><line x1="179.53216374269005" y1="46.80379746835442" x2="339.3325489231922" y2="270.48898265353967" stroke="#d82626" fill="none" stroke-width="3.0"/><line x1="339.3325489231922" y1="270.48898265353967" x2="470.29239766081866" y2="453.80379746835445" stroke="#d82626" fill="none" stroke-width="3.0"/><polygon points="470.29239766081866 453.80379746835445 462.0383374054468 447.4107943164164 465.642005506844 447.2942773006116 466.92047753125394 443.92300020093535" fill="#d82626"/><line x1="30.29239766081872" y1="433.19620253164555" x2="293.42155024698565" y2="206.22374180744274" stroke="#d82626" fill="none" stroke-width="3.0"/><line x1="293.42155024698565" y1="206.22374180744274" x2="439.41520467836256" y2="80.29113924050631" stroke="#d82626" fill="none" stroke-width="3.0"/><polygon points="439.41520467836256 80.29113924050631 433.8025521169579 89.09444153140588 433.3574848628216 85.51646512856368 429.8835577009149 84.55115166975015" fill="#d82626"/><line x1="470.29239766081866" y1="453.80379746835445" x2="30.29239766081872" y2="433.19620253164555" stroke="#d82626" fill="none" stroke-width="3.0"/><polygon points="30.29239766081872 433.19620253164555 40.421800355887235 430.6673290589035 38.28363783468379 433.5704758056114 40.14109540041286 436.66075918930227" fill="#d82626"/><circle cx="246.59479085164628" cy="246.61601572783206" r="10.000000000000014" stroke="#000" fill="none" stroke-width="2.0"/><circle cx="293.4215502469857" cy="206.22374180744262" r="10.0" stroke="#000" fill="none" stroke-width="2.0"/><circle cx="339.3325489231922" cy="270.48898265353967" r="10.0" stroke="#000" fill="none" stroke-width="2.0"/><text x="10.0" y="21" fill="#d82626" stroke-width="0.0" font-family="Nimbus Sans" font-size="16.0pt" font-weight="bold">0</text><circle cx="30.29239766081872" cy="433.19620253164555" r="2.0" stroke="#d82626" fill="#d82626"/><circle cx="470.29239766081866" cy="453.80379746835445" r="2.0" stroke="#d82626" fill="#d82626"/><circle cx="179.53216374269005" cy="46.80379746835442" r="2.0" stroke="#d82626" fill="#d82626"/><circle cx="287.60233918128654" cy="368.79746835443035" r="2.0" stroke="#d82626" fill="#d82626"/><circle cx="439.41520467836256" cy="80.29113924050631" r="2.0" stroke="#d82626" fill="#d82626"/></svg>